<mxfile host="Electron" agent="Mozilla/5.0 (Macintosh; Intel Mac OS X 10_15_7) AppleWebKit/537.36 (KHTML, like Gecko) draw.io/26.0.16 Chrome/132.0.6834.196 Electron/34.2.0 Safari/537.36" version="26.0.16">
  <diagram name="Page-1" id="dTnWhaAi-fjVPR1RrnFO">
    <mxGraphModel dx="1774" dy="685" grid="1" gridSize="10" guides="1" tooltips="1" connect="1" arrows="1" fold="1" page="1" pageScale="1" pageWidth="850" pageHeight="1100" math="0" shadow="0">
      <root>
        <mxCell id="0" />
        <mxCell id="1" parent="0" />
        <mxCell id="bBvL_iELYkg2sfCYX10w-1" value="" style="whiteSpace=wrap;html=1;fillColor=#dae8fc;strokeWidth=3;align=center;verticalAlign=top;strokeColor=#6c8ebf;gradientColor=#7ea6e0;" vertex="1" parent="1">
          <mxGeometry x="90" y="60" width="320" height="390" as="geometry" />
        </mxCell>
        <mxCell id="bBvL_iELYkg2sfCYX10w-2" value="" style="whiteSpace=wrap;html=1;fillColor=light-dark(#feffc7, #281d00);textShadow=0;strokeColor=light-dark(#CCCC00,#6D5100);strokeWidth=3;horizontal=0;verticalAlign=top;fontSize=16;gradientColor=light-dark(#d7e236, #543300);gradientDirection=south;" vertex="1" parent="1">
          <mxGeometry x="180" y="70" width="170" height="100" as="geometry" />
        </mxCell>
        <mxCell id="bBvL_iELYkg2sfCYX10w-3" value="TVS 3.0" style="whiteSpace=wrap;html=1;fillColor=#d5e8d4;textShadow=0;strokeColor=#82b366;strokeWidth=3;horizontal=1;verticalAlign=top;fontSize=16;gradientColor=#97d077;align=left;" vertex="1" parent="1">
          <mxGeometry x="180" y="200" width="170" height="160" as="geometry" />
        </mxCell>
        <mxCell id="bBvL_iELYkg2sfCYX10w-4" value="&lt;font style=&quot;font-size: 24px;&quot;&gt;DUT&lt;/font&gt;" style="whiteSpace=wrap;html=1;fillColor=#ffcd28;textShadow=0;strokeColor=#d79b00;strokeWidth=3;gradientColor=#ffa500;" vertex="1" parent="1">
          <mxGeometry x="180" y="388" width="170" height="50" as="geometry" />
        </mxCell>
        <mxCell id="bBvL_iELYkg2sfCYX10w-6" value="" style="endArrow=classic;html=1;rounded=0;entryX=0.25;entryY=0;entryDx=0;entryDy=0;strokeWidth=4;strokeColor=#10739E;exitX=0.25;exitY=1;exitDx=0;exitDy=0;" edge="1" parent="1" source="bBvL_iELYkg2sfCYX10w-3" target="bBvL_iELYkg2sfCYX10w-4">
          <mxGeometry width="50" height="50" relative="1" as="geometry">
            <mxPoint x="380" y="320" as="sourcePoint" />
            <mxPoint x="430" y="270" as="targetPoint" />
          </mxGeometry>
        </mxCell>
        <mxCell id="bBvL_iELYkg2sfCYX10w-8" value="" style="endArrow=classic;html=1;rounded=0;strokeWidth=4;exitX=0.75;exitY=0;exitDx=0;exitDy=0;strokeColor=#10739E;entryX=0.75;entryY=1;entryDx=0;entryDy=0;" edge="1" parent="1" source="bBvL_iELYkg2sfCYX10w-4" target="bBvL_iELYkg2sfCYX10w-3">
          <mxGeometry width="50" height="50" relative="1" as="geometry">
            <mxPoint x="630" y="320" as="sourcePoint" />
            <mxPoint x="360" y="255" as="targetPoint" />
          </mxGeometry>
        </mxCell>
        <mxCell id="bBvL_iELYkg2sfCYX10w-10" value="&lt;div&gt;&lt;span style=&quot;font-size: 16px;&quot;&gt;API/Drivers&lt;/span&gt;&lt;/div&gt;" style="text;html=1;align=center;verticalAlign=middle;resizable=0;points=[];autosize=1;strokeColor=none;fillColor=none;fontColor=default;" vertex="1" parent="1">
          <mxGeometry x="215" y="140" width="100" height="30" as="geometry" />
        </mxCell>
        <mxCell id="bBvL_iELYkg2sfCYX10w-11" value="&lt;div&gt;&lt;span style=&quot;font-size: 16px;&quot;&gt;Sequences&lt;/span&gt;&lt;/div&gt;" style="text;html=1;align=center;verticalAlign=middle;resizable=0;points=[];autosize=1;strokeColor=none;fillColor=none;fontColor=default;" vertex="1" parent="1">
          <mxGeometry x="215" y="110" width="100" height="30" as="geometry" />
        </mxCell>
        <mxCell id="bBvL_iELYkg2sfCYX10w-12" value="&lt;div&gt;&lt;span style=&quot;font-size: 16px;&quot;&gt;Tests&lt;/span&gt;&lt;/div&gt;" style="text;html=1;align=center;verticalAlign=middle;resizable=0;points=[];autosize=1;strokeColor=none;fillColor=none;fontColor=default;" vertex="1" parent="1">
          <mxGeometry x="235" y="80" width="60" height="30" as="geometry" />
        </mxCell>
        <mxCell id="bBvL_iELYkg2sfCYX10w-13" value="Free simulatio&lt;span style=&quot;background-color: transparent; color: light-dark(rgb(0, 0, 0), rgb(255, 255, 255));&quot;&gt;n models available&lt;/span&gt;" style="verticalLabelPosition=top;shadow=0;dashed=0;align=right;html=1;verticalAlign=middle;strokeWidth=1;shape=mxgraph.mockup.markup.curlyBrace;whiteSpace=wrap;strokeColor=#999999;rotation=90;flipH=0;flipV=1;labelPosition=center;horizontal=0;" vertex="1" parent="1">
          <mxGeometry x="96.88" y="284.38" width="136.25" height="20" as="geometry" />
        </mxCell>
        <mxCell id="bBvL_iELYkg2sfCYX10w-18" value="" style="endArrow=classic;html=1;rounded=0;strokeWidth=2;exitX=0.5;exitY=0;exitDx=0;exitDy=0;strokeColor=#10739E;entryX=0.5;entryY=1;entryDx=0;entryDy=0;startArrow=classic;startFill=1;" edge="1" parent="1" source="bBvL_iELYkg2sfCYX10w-32" target="bBvL_iELYkg2sfCYX10w-2">
          <mxGeometry width="50" height="50" relative="1" as="geometry">
            <mxPoint x="264.65999999999997" y="230" as="sourcePoint" />
            <mxPoint x="264.65999999999997" y="190" as="targetPoint" />
          </mxGeometry>
        </mxCell>
        <mxCell id="bBvL_iELYkg2sfCYX10w-33" value="Abstraction&lt;div&gt;Layer&lt;/div&gt;" style="edgeLabel;html=1;align=left;verticalAlign=middle;resizable=0;points=[];labelBackgroundColor=none;" vertex="1" connectable="0" parent="bBvL_iELYkg2sfCYX10w-18">
          <mxGeometry x="0.3667" y="-1" relative="1" as="geometry">
            <mxPoint x="6" y="-4" as="offset" />
          </mxGeometry>
        </mxCell>
        <mxCell id="bBvL_iELYkg2sfCYX10w-21" value="Free Python code available" style="verticalLabelPosition=top;shadow=0;dashed=0;align=right;html=1;verticalAlign=middle;strokeWidth=1;shape=mxgraph.mockup.markup.curlyBrace;whiteSpace=wrap;strokeColor=#999999;rotation=90;flipH=0;flipV=1;labelPosition=center;horizontal=0;" vertex="1" parent="1">
          <mxGeometry x="126.19" y="175.31" width="80.5" height="20" as="geometry" />
        </mxCell>
        <mxCell id="bBvL_iELYkg2sfCYX10w-22" value="&lt;font style=&quot;font-size: 17px;&quot;&gt;&lt;b&gt;Ingenion-Provided&lt;/b&gt;&lt;/font&gt;" style="whiteSpace=wrap;html=1;fillColor=#b0e3e6;strokeWidth=3;align=center;verticalAlign=top;strokeColor=#0e8088;horizontal=0;" vertex="1" parent="1">
          <mxGeometry x="370" y="140" width="30" height="220" as="geometry" />
        </mxCell>
        <mxCell id="bBvL_iELYkg2sfCYX10w-23" value="User- Provided" style="whiteSpace=wrap;html=1;fillColor=#e1d5e7;strokeWidth=3;align=center;verticalAlign=middle;strokeColor=#9673a6;horizontal=0;spacing=2;" vertex="1" parent="1">
          <mxGeometry x="370" y="70" width="30" height="70" as="geometry" />
        </mxCell>
        <mxCell id="bBvL_iELYkg2sfCYX10w-26" value="User-Provided" style="whiteSpace=wrap;html=1;fillColor=#e1d5e7;strokeWidth=3;align=center;verticalAlign=middle;strokeColor=#9673a6;horizontal=0;spacing=2;" vertex="1" parent="1">
          <mxGeometry x="370" y="360" width="30" height="80" as="geometry" />
        </mxCell>
        <mxCell id="bBvL_iELYkg2sfCYX10w-27" value="Mod 1" style="rounded=0;whiteSpace=wrap;html=1;horizontal=0;fillColor=#d5e8d4;strokeColor=#82b366;" vertex="1" parent="1">
          <mxGeometry x="202.63" y="300" width="25.5" height="60" as="geometry" />
        </mxCell>
        <mxCell id="bBvL_iELYkg2sfCYX10w-28" value="Mod 2" style="rounded=0;whiteSpace=wrap;html=1;horizontal=0;fillColor=#d5e8d4;strokeColor=#82b366;" vertex="1" parent="1">
          <mxGeometry x="228.13" y="300" width="25.5" height="60" as="geometry" />
        </mxCell>
        <mxCell id="bBvL_iELYkg2sfCYX10w-29" value="Mod 3" style="rounded=0;whiteSpace=wrap;html=1;horizontal=0;fillColor=#d5e8d4;strokeColor=#82b366;" vertex="1" parent="1">
          <mxGeometry x="253.63" y="300" width="25.5" height="60" as="geometry" />
        </mxCell>
        <mxCell id="bBvL_iELYkg2sfCYX10w-30" value="Mod 4" style="rounded=0;whiteSpace=wrap;html=1;horizontal=0;fillColor=#d5e8d4;strokeColor=#82b366;" vertex="1" parent="1">
          <mxGeometry x="279.13" y="300" width="25.5" height="60" as="geometry" />
        </mxCell>
        <mxCell id="bBvL_iELYkg2sfCYX10w-31" value="Mod 5" style="rounded=0;whiteSpace=wrap;html=1;horizontal=0;fillColor=#60a917;strokeColor=#2D7600;fontColor=#ffffff;" vertex="1" parent="1">
          <mxGeometry x="305" y="300" width="25.5" height="60" as="geometry" />
        </mxCell>
        <mxCell id="bBvL_iELYkg2sfCYX10w-32" value="TVS FPGA" style="rounded=0;whiteSpace=wrap;html=1;fillColor=#008a00;fontColor=#ffffff;strokeColor=#005700;horizontal=0;verticalAlign=top;" vertex="1" parent="1">
          <mxGeometry x="190" y="230" width="150" height="70" as="geometry" />
        </mxCell>
        <mxCell id="bBvL_iELYkg2sfCYX10w-7" value="&lt;div&gt;&lt;span style=&quot;font-size: 16px;&quot;&gt;Protocol Logic&lt;/span&gt;&lt;/div&gt;" style="text;html=1;align=left;verticalAlign=middle;resizable=0;points=[];autosize=1;strokeColor=none;fillColor=none;fontColor=#FFFFFF;" vertex="1" parent="1">
          <mxGeometry x="215" y="266" width="120" height="30" as="geometry" />
        </mxCell>
        <mxCell id="bBvL_iELYkg2sfCYX10w-9" value="&lt;div&gt;&lt;span style=&quot;font-size: 16px;&quot;&gt;Buffering&lt;/span&gt;&lt;/div&gt;" style="text;html=1;align=center;verticalAlign=middle;resizable=0;points=[];autosize=1;strokeColor=none;fillColor=none;fontColor=#FFFFFF;" vertex="1" parent="1">
          <mxGeometry x="220" y="233" width="90" height="30" as="geometry" />
        </mxCell>
      </root>
    </mxGraphModel>
  </diagram>
</mxfile>
